<?xml version="1.0" encoding="utf-8"?>
<!-- Generator: Adobe Illustrator 21.1.0, SVG Export Plug-In . SVG Version: 6.00 Build 0)  -->
<svg version="1.1" id="圖層_1" xmlns="http://www.w3.org/2000/svg" xmlns:xlink="http://www.w3.org/1999/xlink" x="0px" y="0px"
	 viewBox="0 0 67 67" style="enable-background:new 0 0 67 67;" xml:space="preserve">
<g>
	<path d="M16,20.2H7.9c-1.7,0-3-1.4-3-3V9c0-1.7,1.4-3,3-3H16c1.7,0,3,1.4,3,3v8.1C19,18.8,17.7,20.2,16,20.2z"/>
	<path d="M37.6,40.6h-8.1c-1.7,0-3-1.4-3-3v-8.1c0-1.7,1.4-3,3-3h8.1c1.7,0,3,1.4,3,3v8.1C40.6,39.2,39.2,40.6,37.6,40.6z"/>
	<path d="M59.1,61H51c-1.7,0-3-1.4-3-3v-8.1c0-1.7,1.4-3,3-3h8.1c1.7,0,3,1.4,3,3V58C62.2,59.7,60.8,61,59.1,61z"/>
	<path d="M37.6,61h-8.1c-1.7,0-3-1.4-3-3v-8.1c0-1.7,1.4-3,3-3h8.1c1.7,0,3,1.4,3,3V58C40.6,59.7,39.2,61,37.6,61z"/>
	<path d="M16,61H7.9c-1.7,0-3-1.4-3-3v-8.1c0-1.7,1.4-3,3-3H16c1.7,0,3,1.4,3,3V58C19,59.7,17.7,61,16,61z"/>
	<path d="M59.1,40.6H51c-1.7,0-3-1.4-3-3v-8.1c0-1.7,1.4-3,3-3h8.1c1.7,0,3,1.4,3,3v8.1C62.2,39.2,60.8,40.6,59.1,40.6z"/>
	<path d="M16,40.6H7.9c-1.7,0-3-1.4-3-3v-8.1c0-1.7,1.4-3,3-3H16c1.7,0,3,1.4,3,3v8.1C19,39.2,17.7,40.6,16,40.6z"/>
	<path d="M59.1,20.2H51c-1.7,0-3-1.4-3-3V9c0-1.7,1.4-3,3-3h8.1c1.7,0,3,1.4,3,3v8.1C62.2,18.8,60.8,20.2,59.1,20.2z"/>
	<path d="M37.6,20.2h-8.1c-1.7,0-3-1.4-3-3V9c0-1.7,1.4-3,3-3h8.1c1.7,0,3,1.4,3,3v8.1C40.6,18.8,39.2,20.2,37.6,20.2z"/>
</g>
</svg>
