<?xml version="1.0" encoding="utf-8"?>
<!-- Generator: Adobe Illustrator 22.0.1, SVG Export Plug-In . SVG Version: 6.00 Build 0)  -->
<svg version="1.1" id="圖層_1" xmlns="http://www.w3.org/2000/svg" xmlns:xlink="http://www.w3.org/1999/xlink" x="0px" y="0px"
	 viewBox="0 0 67 67" style="enable-background:new 0 0 67 67;" xml:space="preserve">
<style type="text/css">
	.st0{fill:#FFFFFF;stroke:#000000;stroke-miterlimit:10;}
</style>
<g id="圖層_3">
	<path class="st0" d="M33.5,34.7c-2.4,0-14.7-9.9-14.7-9.9v-1.1c0-1.4,1.1-2.5,2.5-2.5h24.6c1.4,0,2.5,1.1,2.5,2.5v1.2
		C48.2,24.9,36,34.7,33.5,34.7z M33.5,38.1c2.6,0,14.7-9.5,14.7-9.5v14.7c0,1.4-1.1,2.5-2.5,2.5H21.2c-1.4,0-2.5-1.1-2.5-2.5V28.6
		C18.8,28.6,31.1,38.1,33.5,38.1z"/>
</g>
</svg>
