<?xml version="1.0" encoding="utf-8"?>
<!-- Generator: Adobe Illustrator 21.1.0, SVG Export Plug-In . SVG Version: 6.00 Build 0)  -->
<svg version="1.1" xmlns="http://www.w3.org/2000/svg" xmlns:xlink="http://www.w3.org/1999/xlink" x="0px" y="0px"
	 viewBox="0 0 67 67" style="enable-background:new 0 0 67 67;" xml:space="preserve">
<style type="text/css">
	.st0{fill:#D8D9D8;}
	.st1{fill:#FFFFFF;}
</style>
<g id="圖層_2">
	<path class="st0" d="M33.5,1l28.1,16.2v32.5L33.5,66L5.4,49.8V17.2L33.5,1z"/>
</g>
<g id="圖層_3">
	<path class="st1" d="M33.5,34.7c-2.4,0-14.7-9.9-14.7-9.9v-1.1c0-1.4,1.1-2.5,2.5-2.5h24.6c1.4,0,2.5,1.1,2.5,2.5l0,1.2
		C48.2,24.9,36,34.7,33.5,34.7z M33.5,38.1c2.6,0,14.7-9.5,14.7-9.5l0,14.7c0,1.4-1.1,2.5-2.5,2.5H21.2c-1.4,0-2.5-1.1-2.5-2.5
		l0-14.7C18.8,28.6,31.1,38.1,33.5,38.1z"/>
</g>
</svg>
