<?xml version="1.0" encoding="utf-8"?>
<!-- Generator: Adobe Illustrator 22.0.1, SVG Export Plug-In . SVG Version: 6.00 Build 0)  -->
<svg version="1.1" id="Layer_1" xmlns="http://www.w3.org/2000/svg" xmlns:xlink="http://www.w3.org/1999/xlink" x="0px" y="0px"
	 viewBox="0 0 67 67" style="enable-background:new 0 0 67 67;" xml:space="preserve">
<style type="text/css">
	.st0{fill:#FFFFFF;stroke:#000000;stroke-miterlimit:10;}
</style>
<path class="st0" d="M42.2,54.7H25c-6.6,0-12-5.4-12-12V25.6c0-6.6,5.4-12,12-12h17.2c6.6,0,12,5.4,12,12v17.2
	C54.2,49.3,48.8,54.7,42.2,54.7z"/>
<path class="st0" d="M35.2,49.6h6V35h4l0.5-5h-4.6v-2.5c0-1.3,0.1-2.1,2-2.1h2.5v-5h-4c-4.8,0-6.5,2.4-6.5,6.5v3h-3v5h3L35.2,49.6
	L35.2,49.6z"/>
</svg>
