<?xml version="1.0" encoding="utf-8"?>
<!-- Generator: Adobe Illustrator 22.0.1, SVG Export Plug-In . SVG Version: 6.00 Build 0)  -->
<svg version="1.1" id="Layer_1" xmlns="http://www.w3.org/2000/svg" xmlns:xlink="http://www.w3.org/1999/xlink" x="0px" y="0px"
	 viewBox="0 0 67 67" style="enable-background:new 0 0 67 67;" xml:space="preserve">
<style type="text/css">
	.st0{fill:#FFFFFF;stroke:#000000;stroke-miterlimit:10;}
</style>
<path class="st0" d="M43.3,25.6L43.3,25.6c0.5,0,1,0,1.5,0c0.6,0,1.2-0.6,1.2-1.2c0-1,0-1.9,0-2.9c0-0.7-0.5-1.2-1.2-1.2
	c-1,0-1.9,0-2.9,0c-0.7,0-1.2,0.6-1.2,1.2c0,1,0,1.9,0,2.9c0,0.1,0,0.3,0.1,0.4c0.2,0.5,0.6,0.8,1.2,0.8
	C42.3,25.6,42.8,25.6,43.3,25.6z M34,26.8c-3.4,0-6.1,2.7-6.2,6.1c0,3.5,2.7,6.2,6,6.3c3.5,0.1,6.2-2.7,6.3-6
	C40.3,29.7,37.5,26.8,34,26.8z M22,30.1L22,30.1c0,4.6,0,9.1,0,13.6c0,0.6,0.6,1.2,1.2,1.2c7.2,0,14.3,0,21.5,0
	c0.7,0,1.2-0.6,1.2-1.2c0-4.5,0-9,0-13.5v-0.1H43c0.4,1.3,0.5,2.7,0.4,4s-0.6,2.6-1.3,3.8s-1.6,2.1-2.8,2.9c-2.9,2-6.8,2.2-9.9,0.4
	c-1.6-0.9-2.8-2.1-3.7-3.7c-1.3-2.4-1.5-4.9-0.7-7.5C24,30.1,23,30.1,22,30.1z M46.2,48.3c0.2,0,0.3,0,0.5-0.1
	c1.2-0.3,2.3-1.3,2.5-2.6c0-0.1,0-0.3,0.1-0.4V20.8c0-0.1,0-0.3-0.1-0.4c-0.3-1.4-1.4-2.4-2.8-2.6c-0.1,0-0.1,0-0.2,0H21.8
	c-0.1,0-0.3,0-0.4,0.1c-1.4,0.3-2.4,1.4-2.5,2.8c0,0.1,0,0.1,0,0.2v24.5c0,0.2,0,0.3,0.1,0.5c0.3,1.3,1.4,2.3,2.8,2.5
	c0.1,0,0.1,0,0.2,0L46.2,48.3L46.2,48.3z"/>
</svg>
